<svg xmlns="http://www.w3.org/2000/svg" viewBox="0 0 400 220" width="400" height="220" role="img" aria-label="CMC Audit Request Form">
  <defs>
    <linearGradient id="bgr" x1="0" y1="0" x2="1" y2="1">
      <stop offset="0" stop-color="#103a5a"/>
      <stop offset="0.6" stop-color="#1E7FB0"/>
      <stop offset="1" stop-color="#1E8BBC"/>
    </linearGradient>
    <radialGradient id="glowr" cx="0.12" cy="0.92" r="0.7">
      <stop offset="0" stop-color="#78C832" stop-opacity="0.42"/>
      <stop offset="1" stop-color="#78C832" stop-opacity="0"/>
    </radialGradient>
  </defs>
  <rect width="400" height="220" fill="url(#bgr)"/>
  <rect width="400" height="220" fill="url(#glowr)"/>

  <!-- Clipboard -->
  <rect x="138" y="48" width="124" height="140" rx="12" fill="#FFFFFF"/>
  <rect x="176" y="40" width="48" height="20" rx="7" fill="#143150"/>

  <!-- Form lines -->
  <g fill="#D7DEE6">
    <rect x="156" y="78"  width="88" height="9" rx="4.5"/>
    <rect x="156" y="100" width="88" height="9" rx="4.5"/>
    <rect x="156" y="122" width="60" height="9" rx="4.5"/>
  </g>

  <!-- Green check, request received -->
  <circle cx="208" cy="158" r="20" fill="#78C832"/>
  <path d="M198 158 l7 8 l14 -16" fill="none" stroke="#FFFFFF" stroke-width="6" stroke-linecap="round" stroke-linejoin="round"/>

  <!-- Pen -->
  <g transform="rotate(38 286 150)">
    <rect x="276" y="96" width="20" height="92" rx="6" fill="#143150"/>
    <rect x="276" y="96" width="20" height="20" rx="6" fill="#78C832"/>
    <polygon points="276,188 296,188 286,206" fill="#0E2030"/>
  </g>

  <!-- CMC tag -->
  <rect x="24" y="22" width="62" height="26" rx="13" fill="rgba(255,255,255,0.16)" stroke="#FFFFFF" stroke-width="1.5"/>
  <text x="55" y="40" text-anchor="middle" font-family="Segoe UI, Arial, sans-serif" font-size="14" font-weight="700" fill="#FFFFFF" letter-spacing="1.5">CMC</text>

  <!-- Label -->
  <text x="26" y="200" font-family="Georgia, 'Times New Roman', serif" font-size="20" font-style="italic" fill="#FFFFFF" opacity="0.96">Request Form</text>
</svg>
