<svg xmlns="http://www.w3.org/2000/svg" viewBox="0 0 1200 675" width="1200" height="675">
  <defs>
    <linearGradient id="bg" x1="0" y1="0" x2="1" y2="1">
      <stop offset="0" stop-color="#241733"/><stop offset="1" stop-color="#3A2552"/>
    </linearGradient>
    <linearGradient id="acc" x1="0" y1="0" x2="1" y2="0">
      <stop offset="0" stop-color="#78C832"/><stop offset="1" stop-color="#29A9E1"/>
    </linearGradient>
  </defs>
  <rect width="1200" height="675" fill="url(#bg)"/>
  <circle cx="1010" cy="170" r="300" fill="#8B5CF6" opacity="0.16"/>
  <circle cx="180" cy="600" r="240" fill="#78C832" opacity="0.10"/>
  <g transform="translate(0,-6)">
    <path d="M912 96 h78 c14 0 26 12 26 26 v196 h-78 c-14 0 -26 -12 -26 -26 z" fill="#FFFFFF" opacity="0.10"/>
    <path d="M1092 96 h-78 c-14 0 -26 12 -26 26 v196 h78 c14 0 26 -12 26 -26 z" fill="#FFFFFF" opacity="0.06"/>
    <path d="M912 96 h78 c14 0 26 12 26 26 v196 h-78 c-14 0 -26 -12 -26 -26 z" fill="none" stroke="url(#acc)" stroke-width="6"/>
    <path d="M1092 96 h-78 c-14 0 -26 12 -26 26 v196 h78 c14 0 26 -12 26 -26 z" fill="none" stroke="url(#acc)" stroke-width="6"/>
    <line x1="1002" y1="122" x2="1002" y2="318" stroke="url(#acc)" stroke-width="6"/>
    <g stroke="#C6B6E6" stroke-width="9" stroke-linecap="round" opacity="0.8">
      <line x1="936" y1="150" x2="980" y2="150"/>
      <line x1="936" y1="186" x2="980" y2="186"/>
      <line x1="936" y1="222" x2="968" y2="222"/>
      <line x1="1024" y1="150" x2="1068" y2="150"/>
      <line x1="1024" y1="186" x2="1068" y2="186"/>
      <line x1="1024" y1="222" x2="1056" y2="222"/>
    </g>
  </g>
  <text x="92" y="210" fill="#C6B6E6" font-family="'Helvetica Neue',Arial,sans-serif" font-size="34" font-weight="700" letter-spacing="9">CONTROL YOUR BUSINESS</text>
  <rect x="92" y="238" width="130" height="9" rx="4" fill="url(#acc)"/>
  <text x="84" y="372" fill="#FFFFFF" font-family="Georgia,'Times New Roman',serif" font-size="112" font-weight="700">Call List</text>
  <text x="84" y="492" fill="#FFFFFF" font-family="Georgia,'Times New Roman',serif" font-size="112" font-weight="700">Playbook</text>
  <text x="92" y="582" fill="#C6B6E6" font-family="'Helvetica Neue',Arial,sans-serif" font-size="32" font-weight="600" letter-spacing="2">How to work your leads the right way</text>
</svg>
