<svg xmlns="http://www.w3.org/2000/svg" viewBox="0 0 1200 675" width="1200" height="675">
  <defs>
    <linearGradient id="bg" x1="0" y1="0" x2="1" y2="1">
      <stop offset="0" stop-color="#241733"/><stop offset="1" stop-color="#3A2552"/>
    </linearGradient>
    <linearGradient id="acc" x1="0" y1="0" x2="1" y2="0">
      <stop offset="0" stop-color="#78C832"/><stop offset="1" stop-color="#29A9E1"/>
    </linearGradient>
  </defs>
  <rect width="1200" height="675" fill="url(#bg)"/>
  <circle cx="1010" cy="170" r="300" fill="#8B5CF6" opacity="0.16"/>
  <circle cx="180" cy="600" r="240" fill="#29A9E1" opacity="0.10"/>
  <g transform="translate(0,-6)">
    <rect x="905" y="78" width="190" height="248" rx="26" fill="#FFFFFF" opacity="0.08"/>
    <rect x="905" y="78" width="190" height="248" rx="26" fill="none" stroke="url(#acc)" stroke-width="6"/>
    <rect x="968" y="96" width="64" height="9" rx="4" fill="#C6B6E6" opacity="0.7"/>
    <path d="M958 168 c0 -14 11 -25 25 -25 h6 c6 0 11 4 13 10 l9 26 c2 5 0 11 -5 14 l-13 8 c8 16 21 29 37 37 l8 -13 c3 -5 9 -7 14 -5 l26 9 c6 2 10 7 10 13 v6 c0 14 -11 25 -25 25 c-83 0 -150 -67 -150 -150 z" fill="url(#acc)"/>
  </g>
  <text x="92" y="210" fill="#C6B6E6" font-family="'Helvetica Neue',Arial,sans-serif" font-size="34" font-weight="700" letter-spacing="9">CONTROL YOUR BUSINESS</text>
  <rect x="92" y="238" width="130" height="9" rx="4" fill="url(#acc)"/>
  <text x="84" y="372" fill="#FFFFFF" font-family="Georgia,'Times New Roman',serif" font-size="112" font-weight="700">Your</text>
  <text x="84" y="492" fill="#FFFFFF" font-family="Georgia,'Times New Roman',serif" font-size="112" font-weight="700">Call List</text>
  <text x="92" y="582" fill="#C6B6E6" font-family="'Helvetica Neue',Arial,sans-serif" font-size="32" font-weight="600" letter-spacing="2">Work the leads &#183; Book the sit</text>
</svg>
