<svg xmlns="http://www.w3.org/2000/svg" viewBox="0 0 1200 675" width="1200" height="675">
<defs><linearGradient id="bg" x1="0" y1="0" x2="1" y2="0.85"><stop offset="0" stop-color="#141410"/><stop offset="1" stop-color="#2A2414"/></linearGradient>
<linearGradient id="acc" x1="0" y1="0" x2="1" y2="0"><stop offset="0" stop-color="#F0D77A"/><stop offset="1" stop-color="#D4AF37"/></linearGradient>
<radialGradient id="shade" cx="0.28" cy="0.55" r="0.85"><stop offset="0" stop-color="#141410" stop-opacity="0.92"/><stop offset="1" stop-color="#141410" stop-opacity="0"/></radialGradient></defs>
<rect width="1200" height="675" fill="url(#bg)"/>
<circle cx="1015" cy="150" r="250" fill="#F0D77A" opacity="0.16"/><circle cx="175" cy="600" r="230" fill="#9A7B2E" opacity="0.18"/>
<rect width="760" height="675" fill="url(#shade)"/>
<g transform="translate(975,96)" fill="url(#acc)"><circle cx="110" cy="50" r="18" opacity="0.6"/><path d="M84,128 a28,34 0 0 1 56,0 Z" opacity="0.6"/><circle cx="52" cy="40" r="24"/><path d="M14,128 a40,46 0 0 1 76,0 Z"/></g>
<text x="92" y="208" fill="#F0D77A" font-family="'Helvetica Neue',Arial,sans-serif" font-size="34" font-weight="700" letter-spacing="9">CLOSER PLAYBOOK</text>
<rect x="92" y="234" width="150" height="9" rx="4" fill="url(#acc)"/>
<text x="84" y="372" fill="#FFFFFF" font-family="'Palatino Linotype','Book Antiqua',Palatino,Georgia,serif" font-size="110" font-weight="700">Casey</text><text x="84" y="491" fill="#FFFFFF" font-family="'Palatino Linotype','Book Antiqua',Palatino,Georgia,serif" font-size="110" font-weight="700">Snyder</text>
<text x="92" y="582" fill="#C9BD93" font-family="'Helvetica Neue',Arial,sans-serif" font-size="32" font-weight="600" letter-spacing="2">The relationship-first closer</text>
</svg>