<svg xmlns="http://www.w3.org/2000/svg" viewBox="0 0 1200 675" width="1200" height="675">
  <defs>
    <linearGradient id="bg" x1="0" y1="0" x2="1" y2="1">
      <stop offset="0" stop-color="#241733"/><stop offset="1" stop-color="#3A2552"/>
    </linearGradient>
    <linearGradient id="acc" x1="0" y1="0" x2="1" y2="0">
      <stop offset="0" stop-color="#78C832"/><stop offset="1" stop-color="#29A9E1"/>
    </linearGradient>
  </defs>
  <rect width="1200" height="675" fill="url(#bg)"/>
  <circle cx="1010" cy="170" r="300" fill="#8B5CF6" opacity="0.16"/>
  <circle cx="180" cy="600" r="240" fill="#78C832" opacity="0.10"/>
  <g stroke="#78C832" stroke-width="11" stroke-linecap="round">
    <line x1="1092" y1="180" x2="1126" y2="180"/>
    <line x1="1065" y1="245" x2="1089" y2="269"/>
    <line x1="1000" y1="272" x2="1000" y2="306"/>
    <line x1="935" y1="245" x2="911" y2="269"/>
    <line x1="908" y1="180" x2="874" y2="180"/>
    <line x1="935" y1="115" x2="911" y2="91"/>
    <line x1="1000" y1="88" x2="1000" y2="54"/>
    <line x1="1065" y1="115" x2="1089" y2="91"/>
  </g>
  <circle cx="1000" cy="180" r="68" fill="url(#acc)"/>
  <text x="92" y="210" fill="#C6B6E6" font-family="'Helvetica Neue',Arial,sans-serif" font-size="34" font-weight="700" letter-spacing="9">CONTROL YOUR BUSINESS</text>
  <rect x="92" y="238" width="130" height="9" rx="4" fill="url(#acc)"/>
  <text x="84" y="372" fill="#FFFFFF" font-family="Georgia,'Times New Roman',serif" font-size="112" font-weight="700">Communities</text>
  <text x="84" y="492" fill="#FFFFFF" font-family="Georgia,'Times New Roman',serif" font-size="112" font-weight="700">Program</text>
  <text x="92" y="582" fill="#C6B6E6" font-family="'Helvetica Neue',Arial,sans-serif" font-size="32" font-weight="600" letter-spacing="2">$836,150 raised since 2018</text>
</svg>
