<svg xmlns="http://www.w3.org/2000/svg" viewBox="0 0 1200 675" width="1200" height="675">
  <defs>
    <linearGradient id="bg" x1="0" y1="0" x2="1" y2="1">
      <stop offset="0" stop-color="#241733"/><stop offset="1" stop-color="#3A2552"/>
    </linearGradient>
    <linearGradient id="acc" x1="0" y1="0" x2="1" y2="0">
      <stop offset="0" stop-color="#78C832"/><stop offset="1" stop-color="#29A9E1"/>
    </linearGradient>
  </defs>
  <rect width="1200" height="675" fill="url(#bg)"/>
  <circle cx="1010" cy="170" r="300" fill="#8B5CF6" opacity="0.16"/>
  <circle cx="180" cy="600" r="240" fill="#29A9E1" opacity="0.10"/>
  <g transform="translate(0,-8)">
    <rect x="915" y="95" width="170" height="212" rx="18" fill="#FFFFFF" opacity="0.08"/>
    <rect x="915" y="95" width="170" height="212" rx="18" fill="none" stroke="url(#acc)" stroke-width="6"/>
    <rect x="972" y="78" width="56" height="36" rx="9" fill="url(#acc)"/>
    <rect x="945" y="150" width="112" height="13" rx="6" fill="#C6B6E6" opacity="0.85"/>
    <rect x="945" y="186" width="112" height="13" rx="6" fill="#C6B6E6" opacity="0.85"/>
    <rect x="945" y="222" width="74" height="13" rx="6" fill="#C6B6E6" opacity="0.85"/>
    <path d="M945 262 l17 18 l40 -44" fill="none" stroke="#78C832" stroke-width="11" stroke-linecap="round" stroke-linejoin="round"/>
  </g>
  <text x="92" y="210" fill="#C6B6E6" font-family="'Helvetica Neue',Arial,sans-serif" font-size="34" font-weight="700" letter-spacing="9">CONTROL YOUR BUSINESS</text>
  <rect x="92" y="238" width="130" height="9" rx="4" fill="url(#acc)"/>
  <text x="84" y="372" fill="#FFFFFF" font-family="Georgia,'Times New Roman',serif" font-size="112" font-weight="700">Event</text>
  <text x="84" y="492" fill="#FFFFFF" font-family="Georgia,'Times New Roman',serif" font-size="112" font-weight="700">Playbook</text>
  <text x="92" y="582" fill="#C6B6E6" font-family="'Helvetica Neue',Arial,sans-serif" font-size="32" font-weight="600" letter-spacing="2">Set up &#183; Capture &#183; Sit &#183; Close</text>
</svg>
