<svg xmlns="http://www.w3.org/2000/svg" viewBox="0 0 1200 675" width="1200" height="675">
<defs><linearGradient id="bg" x1="0" y1="0" x2="1" y2="0.85"><stop offset="0" stop-color="#0B2138"/><stop offset="1" stop-color="#1E5A9E"/></linearGradient>
<linearGradient id="acc" x1="0" y1="0" x2="1" y2="0"><stop offset="0" stop-color="#F2B441"/><stop offset="1" stop-color="#FFD583"/></linearGradient>
<radialGradient id="shade" cx="0.28" cy="0.55" r="0.85"><stop offset="0" stop-color="#0B2138" stop-opacity="0.92"/><stop offset="1" stop-color="#0B2138" stop-opacity="0"/></radialGradient></defs>
<rect width="1200" height="675" fill="url(#bg)"/>
<circle cx="1015" cy="150" r="250" fill="#36B0F0" opacity="0.16"/><circle cx="175" cy="600" r="230" fill="#DC9B3C" opacity="0.18"/>
<rect width="760" height="675" fill="url(#shade)"/>
<g transform="translate(1000,100)"><circle cx="60" cy="60" r="30" fill="url(#acc)"/><g stroke="url(#acc)" stroke-width="8" stroke-linecap="round"><line x1="60" y1="0" x2="60" y2="20"/><line x1="60" y1="100" x2="60" y2="120"/><line x1="0" y1="60" x2="20" y2="60"/><line x1="100" y1="60" x2="120" y2="60"/><line x1="15" y1="15" x2="30" y2="30"/><line x1="90" y1="90" x2="105" y2="105"/><line x1="105" y1="15" x2="90" y2="30"/><line x1="30" y1="90" x2="15" y2="105"/></g></g>
<text x="92" y="208" fill="#F4C97A" font-family="'Helvetica Neue',Arial,sans-serif" font-size="34" font-weight="700" letter-spacing="9">SYSTEM &amp; CODES</text>
<rect x="92" y="234" width="150" height="9" rx="4" fill="url(#acc)"/>
<text x="84" y="372" fill="#FFFFFF" font-family="Bahnschrift,'Franklin Gothic Medium','Arial Narrow',Arial,sans-serif" font-size="108" font-weight="700">Design</text><text x="84" y="489" fill="#FFFFFF" font-family="Bahnschrift,'Franklin Gothic Medium','Arial Narrow',Arial,sans-serif" font-size="108" font-weight="700">Lab</text>
<text x="92" y="582" fill="#AEC8E0" font-family="'Helvetica Neue',Arial,sans-serif" font-size="32" font-weight="600" letter-spacing="2">Practice the system design</text>
</svg>