<svg xmlns="http://www.w3.org/2000/svg" viewBox="0 0 1200 675" width="1200" height="675">
<defs><linearGradient id="bg" x1="0" y1="0" x2="1" y2="0.85"><stop offset="0" stop-color="#0E3340"/><stop offset="1" stop-color="#1C7E86"/></linearGradient>
<linearGradient id="acc" x1="0" y1="0" x2="1" y2="0"><stop offset="0" stop-color="#36C9D8"/><stop offset="1" stop-color="#7AE0C8"/></linearGradient>
<radialGradient id="shade" cx="0.28" cy="0.55" r="0.85"><stop offset="0" stop-color="#0E3340" stop-opacity="0.92"/><stop offset="1" stop-color="#0E3340" stop-opacity="0"/></radialGradient></defs>
<rect width="1200" height="675" fill="url(#bg)"/>
<circle cx="1015" cy="150" r="250" fill="#36C9D8" opacity="0.16"/><circle cx="175" cy="600" r="230" fill="#2A8E96" opacity="0.18"/>
<rect width="760" height="675" fill="url(#shade)"/>
<g transform="translate(972,108)" fill="none" stroke="url(#acc)" stroke-width="6" stroke-linejoin="round"><path d="M90,18 C60,2 22,8 8,16 V100 C22,92 60,86 90,100 C120,86 158,92 172,100 V16 C158,8 120,2 90,18 Z"/><line x1="90" y1="18" x2="90" y2="100"/></g>
<text x="92" y="208" fill="#9AD8E0" font-family="'Helvetica Neue',Arial,sans-serif" font-size="34" font-weight="700" letter-spacing="9">REFERENCE</text>
<rect x="92" y="234" width="150" height="9" rx="4" fill="url(#acc)"/>
<text x="84" y="372" fill="#FFFFFF" font-family="'Helvetica Neue',Arial,sans-serif" font-size="104" font-weight="700">Installation</text><text x="84" y="484" fill="#FFFFFF" font-family="'Helvetica Neue',Arial,sans-serif" font-size="104" font-weight="700">Gallery</text>
<text x="92" y="582" fill="#AEC8CE" font-family="'Helvetica Neue',Arial,sans-serif" font-size="32" font-weight="600" letter-spacing="2">Real Trinity installs</text>
</svg>