<svg xmlns="http://www.w3.org/2000/svg" viewBox="0 0 1200 675" width="1200" height="675">
  <defs>
    <linearGradient id="bg" x1="0" y1="0" x2="1" y2="1">
      <stop offset="0" stop-color="#0F2038"/><stop offset="1" stop-color="#1A2942"/>
    </linearGradient>
    <linearGradient id="acc" x1="0" y1="0" x2="1" y2="0">
      <stop offset="0" stop-color="#78C832"/><stop offset="1" stop-color="#29A9E1"/>
    </linearGradient>
  </defs>
  <rect width="1200" height="675" fill="url(#bg)"/>
  <circle cx="1000" cy="150" r="280" fill="#78C832" opacity="0.12"/>
  <circle cx="200" cy="600" r="240" fill="#29A9E1" opacity="0.10"/>
  <!-- faint roof + panel motif, upper right -->
  <g opacity="0.16" stroke="#9FB3C8" stroke-width="3" fill="none">
    <path d="M 840 250 L 1010 190 L 1120 250 L 1120 330 L 840 330 Z"/>
    <line x1="900" y1="262" x2="1080" y2="262"/>
    <line x1="900" y1="288" x2="1080" y2="288"/>
    <line x1="900" y1="314" x2="1080" y2="314"/>
    <line x1="960" y1="246" x2="960" y2="330"/>
    <line x1="1020" y1="246" x2="1020" y2="330"/>
  </g>
  <text x="92" y="210" fill="#9FB3C8" font-family="'Helvetica Neue',Arial,sans-serif" font-size="34" font-weight="700" letter-spacing="9">FIELD PROOF</text>
  <rect x="92" y="238" width="130" height="9" rx="4" fill="url(#acc)"/>
  <text x="84" y="372" fill="#FFFFFF" font-family="Georgia,'Times New Roman',serif" font-size="112" font-weight="700">Installation</text>
  <text x="84" y="492" fill="#FFFFFF" font-family="Georgia,'Times New Roman',serif" font-size="112" font-weight="700">Gallery</text>
  <text x="92" y="582" fill="#9FB3C8" font-family="'Helvetica Neue',Arial,sans-serif" font-size="32" font-weight="600" letter-spacing="2">Solar &#183; Roof &#183; Battery</text>
</svg>
