<svg xmlns="http://www.w3.org/2000/svg" viewBox="0 0 1200 675" width="1200" height="675">
<defs><linearGradient id="bg" x1="0" y1="0" x2="1" y2="0.85"><stop offset="0" stop-color="#10283A"/><stop offset="1" stop-color="#1E6E92"/></linearGradient>
<linearGradient id="acc" x1="0" y1="0" x2="1" y2="0"><stop offset="0" stop-color="#FF9A3C"/><stop offset="1" stop-color="#FFC04E"/></linearGradient>
<radialGradient id="shade" cx="0.28" cy="0.55" r="0.85"><stop offset="0" stop-color="#10283A" stop-opacity="0.92"/><stop offset="1" stop-color="#10283A" stop-opacity="0"/></radialGradient></defs>
<rect width="1200" height="675" fill="url(#bg)"/>
<circle cx="1015" cy="150" r="250" fill="#FF9A3C" opacity="0.16"/><circle cx="175" cy="600" r="230" fill="#2E86A6" opacity="0.18"/>
<rect width="760" height="675" fill="url(#shade)"/>
<g transform="translate(984,96)"><g fill="url(#acc)"><rect x="0" y="74" width="26" height="46" rx="3"/><rect x="42" y="46" width="26" height="74" rx="3"/><rect x="84" y="18" width="26" height="102" rx="3"/></g><path d="M8,62 L52,34 L96,8" fill="none" stroke="url(#acc)" stroke-width="6"/><path d="M76,8 H98 V30" fill="none" stroke="url(#acc)" stroke-width="6"/></g>
<text x="92" y="208" fill="#FFC080" font-family="'Helvetica Neue',Arial,sans-serif" font-size="34" font-weight="700" letter-spacing="9">CONTROL YOUR BUSINESS</text>
<rect x="92" y="234" width="150" height="9" rx="4" fill="url(#acc)"/>
<text x="84" y="372" fill="#FFFFFF" font-family="'Arial Black','Arial Bold',Impact,Arial,sans-serif" font-size="98" font-weight="700">My Partner</text><text x="84" y="478" fill="#FFFFFF" font-family="'Arial Black','Arial Bold',Impact,Arial,sans-serif" font-size="98" font-weight="700">Calls</text>
<text x="92" y="582" fill="#AEC2D6" font-family="'Helvetica Neue',Arial,sans-serif" font-size="32" font-weight="600" letter-spacing="2">Log outreach calls &amp; follow-ups</text>
</svg>