<svg xmlns="http://www.w3.org/2000/svg" viewBox="0 0 1200 675" width="1200" height="675">
<defs><linearGradient id="bg" x1="0" y1="0" x2="1" y2="1"><stop offset="0" stop-color="#15123A"/><stop offset="1" stop-color="#2B2566"/></linearGradient>
<linearGradient id="acc" x1="0" y1="0" x2="1" y2="0"><stop offset="0" stop-color="#F2D785"/><stop offset="1" stop-color="#C99A3E"/></linearGradient></defs>
<rect width="1200" height="675" fill="url(#bg)"/>
<circle cx="1015" cy="150" r="250" fill="#E8C66B" opacity="0.10"/><circle cx="175" cy="600" r="230" fill="#6E63D6" opacity="0.13"/>
<g transform="translate(966,92)"><polygon points="92,6 182,44 92,82 2,44" fill="url(#acc)"/><path d="M34,56 V96 Q92,124 150,96 V56" fill="none" stroke="url(#acc)" stroke-width="7"/><circle cx="92" cy="44" r="7" fill="#15123A"/><line x1="182" y1="44" x2="182" y2="104" stroke="url(#acc)" stroke-width="5"/><circle cx="182" cy="110" r="8" fill="url(#acc)"/></g>
<text x="92" y="208" fill="#EDD58A" font-family="'Helvetica Neue',Arial,sans-serif" font-size="34" font-weight="700" letter-spacing="9">UNIVERSITY</text>
<rect x="92" y="234" width="150" height="9" rx="4" fill="url(#acc)"/>
<text x="84" y="372" fill="#FFFFFF" font-family="Georgia,'Times New Roman',serif" font-size="112" font-weight="700">New Hire</text><text x="84" y="493" fill="#FFFFFF" font-family="Georgia,'Times New Roman',serif" font-size="112" font-weight="700">Process</text><rect x="86" y="523" width="330" height="3" rx="2" fill="url(#acc)" opacity="0.6"/>
<text x="92" y="582" fill="#C9BD93" font-family="'Helvetica Neue',Arial,sans-serif" font-size="32" font-weight="600" letter-spacing="2">Your first days, step by step</text>
</svg>