<svg xmlns="http://www.w3.org/2000/svg" viewBox="0 0 1200 675" width="1200" height="675">
  <defs>
    <linearGradient id="bg" x1="0" y1="0" x2="1" y2="1">
      <stop offset="0" stop-color="#0F2038"/><stop offset="1" stop-color="#1A2942"/>
    </linearGradient>
    <linearGradient id="acc" x1="0" y1="0" x2="1" y2="0">
      <stop offset="0" stop-color="#78C832"/><stop offset="1" stop-color="#29A9E1"/>
    </linearGradient>
  </defs>
  <rect width="1200" height="675" fill="url(#bg)"/>
  <circle cx="1000" cy="150" r="280" fill="#78C832" opacity="0.12"/>
  <circle cx="200" cy="600" r="240" fill="#29A9E1" opacity="0.10"/>
  <!-- mini org-node motif, top right -->
  <g opacity="0.9">
    <rect x="876" y="150" width="150" height="46" rx="9" fill="none" stroke="#9FB3C8" stroke-width="2"/>
    <line x1="951" y1="196" x2="951" y2="224" stroke="#9FB3C8" stroke-width="2"/>
    <line x1="893" y1="224" x2="1009" y2="224" stroke="#9FB3C8" stroke-width="2"/>
    <line x1="893" y1="224" x2="893" y2="244" stroke="#9FB3C8" stroke-width="2"/>
    <line x1="1009" y1="224" x2="1009" y2="244" stroke="#9FB3C8" stroke-width="2"/>
    <rect x="846" y="244" width="94" height="40" rx="8" fill="none" stroke="#78C832" stroke-width="2"/>
    <rect x="962" y="244" width="94" height="40" rx="8" fill="none" stroke="#29A9E1" stroke-width="2"/>
  </g>
  <text x="92" y="210" fill="#9FB3C8" font-family="'Helvetica Neue',Arial,sans-serif" font-size="34" font-weight="700" letter-spacing="9">MANAGEMENT</text>
  <rect x="92" y="238" width="130" height="9" rx="4" fill="url(#acc)"/>
  <text x="84" y="372" fill="#FFFFFF" font-family="Georgia,'Times New Roman',serif" font-size="112" font-weight="700">Org Chart</text>
  <text x="84" y="486" fill="#FFFFFF" font-family="Georgia,'Times New Roman',serif" font-size="112" font-weight="700">Explorer</text>
  <text x="92" y="582" fill="#9FB3C8" font-family="'Helvetica Neue',Arial,sans-serif" font-size="32" font-weight="600" letter-spacing="2">Live, connected org &#183; Preview (V2)</text>
</svg>
