<svg xmlns="http://www.w3.org/2000/svg" viewBox="0 0 1200 675" width="1200" height="675">
<defs><linearGradient id="bg" x1="0" y1="0" x2="1" y2="1"><stop offset="0" stop-color="#0B2545"/><stop offset="1" stop-color="#15495A"/></linearGradient>
<linearGradient id="acc" x1="0" y1="0" x2="1" y2="0"><stop offset="0" stop-color="#F5A623"/><stop offset="1" stop-color="#78C832"/></linearGradient></defs>
<rect width="1200" height="675" fill="url(#bg)"/>
<circle cx="1015" cy="150" r="250" fill="#F5A623" opacity="0.10"/><circle cx="175" cy="600" r="230" fill="#29A9E1" opacity="0.13"/>
<g transform="translate(1002,104)"><circle cx="58" cy="58" r="34" fill="url(#acc)"/><g stroke="url(#acc)" stroke-width="7" stroke-linecap="round"><line x1="58" y1="2" x2="58" y2="20"/><line x1="58" y1="96" x2="58" y2="114"/><line x1="2" y1="58" x2="20" y2="58"/><line x1="96" y1="58" x2="114" y2="58"/><line x1="18" y1="18" x2="31" y2="31"/><line x1="85" y1="85" x2="98" y2="98"/><line x1="98" y1="18" x2="85" y2="31"/><line x1="31" y1="85" x2="18" y2="98"/></g></g>
<text x="92" y="208" fill="#F4C77A" font-family="'Helvetica Neue',Arial,sans-serif" font-size="34" font-weight="700" letter-spacing="9">SOLAR</text>
<rect x="92" y="234" width="150" height="9" rx="4" fill="url(#acc)"/>
<text x="84" y="372" fill="#FFFFFF" font-family="Georgia,'Times New Roman',serif" font-size="112" font-weight="700">Selling</text><text x="84" y="493" fill="#FFFFFF" font-family="Georgia,'Times New Roman',serif" font-size="112" font-weight="700">the Rate</text>
<text x="92" y="582" fill="#AFCBC6" font-family="'Helvetica Neue',Arial,sans-serif" font-size="32" font-weight="600" letter-spacing="2">Conviction on the escalator</text>
</svg>