<svg xmlns="http://www.w3.org/2000/svg" viewBox="0 0 1200 675" width="1200" height="675">
<defs><linearGradient id="bg" x1="0" y1="0" x2="1" y2="0.85"><stop offset="0" stop-color="#103246"/><stop offset="1" stop-color="#1E86B0"/></linearGradient>
<linearGradient id="acc" x1="0" y1="0" x2="1" y2="0"><stop offset="0" stop-color="#34C0E8"/><stop offset="1" stop-color="#6EE0D2"/></linearGradient>
<radialGradient id="shade" cx="0.28" cy="0.55" r="0.85"><stop offset="0" stop-color="#103246" stop-opacity="0.92"/><stop offset="1" stop-color="#103246" stop-opacity="0"/></radialGradient></defs>
<rect width="1200" height="675" fill="url(#bg)"/>
<circle cx="1015" cy="150" r="250" fill="#34C0E8" opacity="0.16"/><circle cx="175" cy="600" r="230" fill="#2A7A96" opacity="0.18"/>
<rect width="760" height="675" fill="url(#shade)"/>
<g transform="rotate(-10 980 360)" opacity="0.16"><rect x="812" y="150" width="360" height="350" rx="26" fill="none" stroke="url(#acc)" stroke-width="6"/><line x1="952" y1="160" x2="952" y2="490" stroke="url(#acc)" stroke-width="4" stroke-dasharray="16 13"/><circle cx="952" cy="150" r="22" fill="#103246"/><circle cx="952" cy="500" r="22" fill="#103246"/></g><g transform="translate(998,104)"><rect x="0" y="0" width="156" height="66" rx="14" fill="none" stroke="url(#acc)" stroke-width="5"/><line x1="56" y1="7" x2="56" y2="59" stroke="url(#acc)" stroke-width="4" stroke-dasharray="9 7"/><circle cx="118" cy="33" r="9" fill="url(#acc)"/></g>
<text x="92" y="208" fill="#8FD6EC" font-family="'Helvetica Neue',Arial,sans-serif" font-size="31" font-weight="700" letter-spacing="9">MANAGEMENT / TICKET</text>
<rect x="92" y="234" width="150" height="9" rx="4" fill="url(#acc)"/>
<text x="84" y="372" fill="#FFFFFF" font-family="'Helvetica Neue',Arial,sans-serif" font-size="92" font-weight="700">Shift / Calendar</text><text x="84" y="471" fill="#FFFFFF" font-family="'Helvetica Neue',Arial,sans-serif" font-size="92" font-weight="700">Change</text>
<text x="92" y="582" fill="#AED2DE" font-family="'Helvetica Neue',Arial,sans-serif" font-size="32" font-weight="600" letter-spacing="2">Hours, blocks, time off</text>
</svg>