<svg xmlns="http://www.w3.org/2000/svg" viewBox="0 0 1200 675" width="1200" height="675">
<defs><linearGradient id="bg" x1="0" y1="0" x2="1" y2="0.85"><stop offset="0" stop-color="#0B2138"/><stop offset="1" stop-color="#1E5A9E"/></linearGradient>
<linearGradient id="acc" x1="0" y1="0" x2="1" y2="0"><stop offset="0" stop-color="#F2B441"/><stop offset="1" stop-color="#FFD583"/></linearGradient>
<radialGradient id="shade" cx="0.28" cy="0.55" r="0.85"><stop offset="0" stop-color="#0B2138" stop-opacity="0.92"/><stop offset="1" stop-color="#0B2138" stop-opacity="0"/></radialGradient></defs>
<rect width="1200" height="675" fill="url(#bg)"/>
<circle cx="1015" cy="150" r="250" fill="#36B0F0" opacity="0.16"/><circle cx="175" cy="600" r="230" fill="#DC9B3C" opacity="0.18"/>
<rect width="760" height="675" fill="url(#shade)"/>
<g transform="translate(1000,104)" fill="none" stroke="url(#acc)" stroke-width="7" stroke-linecap="round" stroke-linejoin="round"><path d="M70,120 L88,30"/><path d="M106,120 L88,30"/><line x1="76" y1="92" x2="100" y2="92"/><line x1="80" y1="64" x2="96" y2="64"/><circle cx="88" cy="26" r="7" fill="url(#acc)"/><path d="M64,12 A30,30 0 0 0 64,40"/><path d="M50,2 A46,46 0 0 0 50,50"/><path d="M112,12 A30,30 0 0 1 112,40"/><path d="M126,2 A46,46 0 0 1 126,50"/></g>
<text x="92" y="208" fill="#F4C97A" font-family="'Helvetica Neue',Arial,sans-serif" font-size="34" font-weight="700" letter-spacing="9">SYSTEM &amp; CODES</text>
<rect x="92" y="234" width="150" height="9" rx="4" fill="url(#acc)"/>
<text x="84" y="372" fill="#FFFFFF" font-family="Bahnschrift,'Franklin Gothic Medium','Arial Narrow',Arial,sans-serif" font-size="108" font-weight="700">SolarEdge &amp;</text><text x="84" y="489" fill="#FFFFFF" font-family="Bahnschrift,'Franklin Gothic Medium','Arial Narrow',Arial,sans-serif" font-size="108" font-weight="700">Ham Radio</text>
<text x="92" y="582" fill="#AEC8E0" font-family="'Helvetica Neue',Arial,sans-serif" font-size="32" font-weight="600" letter-spacing="2">RFI: the facts and the fix</text>
</svg>
