<svg xmlns="http://www.w3.org/2000/svg" viewBox="0 0 1200 675" width="1200" height="675">
<defs><linearGradient id="bg" x1="0" y1="0" x2="1" y2="1"><stop offset="0" stop-color="#122230"/><stop offset="1" stop-color="#1B3145"/></linearGradient>
<linearGradient id="acc" x1="0" y1="0" x2="1" y2="0"><stop offset="0" stop-color="#29A9E1"/><stop offset="1" stop-color="#56D6C2"/></linearGradient></defs>
<rect width="1200" height="675" fill="url(#bg)"/>
<circle cx="1015" cy="150" r="250" fill="#29A9E1" opacity="0.10"/><circle cx="175" cy="600" r="230" fill="#1E5870" opacity="0.13"/>
<g transform="rotate(-10 980 360)" opacity="0.15"><rect x="812" y="150" width="360" height="350" rx="26" fill="none" stroke="url(#acc)" stroke-width="6"/><line x1="952" y1="160" x2="952" y2="490" stroke="url(#acc)" stroke-width="4" stroke-dasharray="16 13"/><circle cx="952" cy="150" r="22" fill="#122230"/><circle cx="952" cy="500" r="22" fill="#122230"/></g><g transform="translate(998,104)"><rect x="0" y="0" width="156" height="66" rx="14" fill="none" stroke="url(#acc)" stroke-width="5"/><line x1="56" y1="7" x2="56" y2="59" stroke="url(#acc)" stroke-width="4" stroke-dasharray="9 7"/><circle cx="118" cy="33" r="9" fill="url(#acc)"/></g>
<text x="92" y="208" fill="#79C8E6" font-family="'Helvetica Neue',Arial,sans-serif" font-size="31" font-weight="700" letter-spacing="9">MANAGEMENT / TICKET</text>
<rect x="92" y="234" width="150" height="9" rx="4" fill="url(#acc)"/>
<text x="84" y="372" fill="#FFFFFF" font-family="Georgia,'Times New Roman',serif" font-size="90" font-weight="700">Traditional Rep</text><text x="84" y="469" fill="#FFFFFF" font-family="Georgia,'Times New Roman',serif" font-size="90" font-weight="700">Transfer</text>
<text x="92" y="582" fill="#9EC5D9" font-family="'Helvetica Neue',Arial,sans-serif" font-size="32" font-weight="600" letter-spacing="2">Move a rep between offices</text>
</svg>