<svg xmlns="http://www.w3.org/2000/svg" viewBox="0 0 1200 675" width="1200" height="675">
<defs><linearGradient id="bg" x1="0" y1="0" x2="1" y2="0.85"><stop offset="0" stop-color="#143038"/><stop offset="1" stop-color="#2C6E72"/></linearGradient>
<linearGradient id="acc" x1="0" y1="0" x2="1" y2="0"><stop offset="0" stop-color="#62D0C8"/><stop offset="1" stop-color="#8AE0A0"/></linearGradient>
<radialGradient id="shade" cx="0.28" cy="0.55" r="0.85"><stop offset="0" stop-color="#143038" stop-opacity="0.92"/><stop offset="1" stop-color="#143038" stop-opacity="0"/></radialGradient></defs>
<rect width="1200" height="675" fill="url(#bg)"/>
<circle cx="1015" cy="150" r="250" fill="#62D0C8" opacity="0.16"/><circle cx="175" cy="600" r="230" fill="#2C6E72" opacity="0.18"/>
<rect width="760" height="675" fill="url(#shade)"/>
<g transform="translate(975,96)" fill="url(#acc)"><circle cx="110" cy="50" r="18" opacity="0.6"/><path d="M84,128 a28,34 0 0 1 56,0 Z" opacity="0.6"/><circle cx="52" cy="40" r="24"/><path d="M14,128 a40,46 0 0 1 76,0 Z"/></g>
<text x="92" y="208" fill="#8FD8D0" font-family="'Helvetica Neue',Arial,sans-serif" font-size="34" font-weight="700" letter-spacing="9">MANAGEMENT / HR</text>
<rect x="92" y="234" width="150" height="9" rx="4" fill="url(#acc)"/>
<text x="84" y="372" fill="#FFFFFF" font-family="Calibri,'Segoe UI',Corbel,Arial,sans-serif" font-size="104" font-weight="700">Traditional Rep</text><text x="84" y="484" fill="#FFFFFF" font-family="Calibri,'Segoe UI',Corbel,Arial,sans-serif" font-size="104" font-weight="700">Transfer</text>
<text x="92" y="582" fill="#AEC8C8" font-family="'Helvetica Neue',Arial,sans-serif" font-size="32" font-weight="600" letter-spacing="2">Move a rep between offices</text>
</svg>