<svg xmlns="http://www.w3.org/2000/svg" viewBox="0 0 1200 675" width="1200" height="675">
<defs><linearGradient id="bg" x1="0" y1="0" x2="1" y2="0.85"><stop offset="0" stop-color="#1E1545"/><stop offset="1" stop-color="#46297E"/></linearGradient>
<linearGradient id="acc" x1="0" y1="0" x2="1" y2="0"><stop offset="0" stop-color="#F2D785"/><stop offset="1" stop-color="#D9A93E"/></linearGradient>
<radialGradient id="shade" cx="0.28" cy="0.55" r="0.85"><stop offset="0" stop-color="#1E1545" stop-opacity="0.92"/><stop offset="1" stop-color="#1E1545" stop-opacity="0"/></radialGradient></defs>
<rect width="1200" height="675" fill="url(#bg)"/>
<circle cx="1015" cy="150" r="250" fill="#B98CFF" opacity="0.16"/><circle cx="175" cy="600" r="230" fill="#E8C66B" opacity="0.18"/>
<rect width="760" height="675" fill="url(#shade)"/>
<g transform="translate(966,92)"><polygon points="92,6 182,44 92,82 2,44" fill="url(#acc)"/><path d="M34,56 V96 Q92,124 150,96 V56" fill="none" stroke="url(#acc)" stroke-width="7"/><circle cx="92" cy="44" r="7" fill="#1E1545"/><line x1="182" y1="44" x2="182" y2="104" stroke="url(#acc)" stroke-width="5"/><circle cx="182" cy="110" r="8" fill="url(#acc)"/></g>
<text x="92" y="208" fill="#EDD58A" font-family="'Helvetica Neue',Arial,sans-serif" font-size="34" font-weight="700" letter-spacing="9">UNIVERSITY</text>
<rect x="92" y="234" width="150" height="9" rx="4" fill="url(#acc)"/>
<text x="84" y="372" fill="#FFFFFF" font-family="'Palatino Linotype','Book Antiqua',Palatino,Georgia,serif" font-size="110" font-weight="700">Traditional</text><text x="84" y="491" fill="#FFFFFF" font-family="'Palatino Linotype','Book Antiqua',Palatino,Georgia,serif" font-size="110" font-weight="700">University</text><rect x="86" y="521" width="330" height="3" rx="2" fill="url(#acc)" opacity="0.6"/>
<text x="92" y="582" fill="#C9BD93" font-family="'Helvetica Neue',Arial,sans-serif" font-size="32" font-weight="600" letter-spacing="2">The curriculum that builds closers</text>
</svg>